<?xml version="1.0" encoding="utf-8"?>
<!-- Generator: Adobe Illustrator 21.0.2, SVG Export Plug-In . SVG Version: 6.00 Build 0)  -->
<svg version="1.1" id="Layer_1" xmlns="http://www.w3.org/2000/svg" xmlns:xlink="http://www.w3.org/1999/xlink" x="0px" y="0px"
	 viewBox="0 0 90 58.3" style="enable-background:new 0 0 90 58.3;" xml:space="preserve">
<path d="M85.7,15.6c-1.2,1.3-47.1,24.1-47.1,24.1c-0.5,0.3-1,0.7-2.8,1.1c-9.1,2-26.9-3.1-31.5-5.5c-0.9-0.5-1.4-0.9-1.7-1.3
	c-0.4,0.6,0,1.3,1.7,2.2c4.6,2.4,22.4,7.6,31.5,5.5c1.8-0.4,2.3-0.8,2.8-1.1c0,0,45.9-22.8,47.1-24.1c0.7-0.7,2-3,1.8-5.2
	C87.3,13.2,86.3,15,85.7,15.6z"/>
<path d="M18.8,41.5c0.5,0.8,1.1,1.3,2,1.6c1.1,0.3,2.2,0,3.1-0.7C22.2,42.1,20.5,41.8,18.8,41.5z"/>
<path d="M4.3,34.4C8.9,36.9,26.8,42,35.8,40c1.8-0.4,2.3-0.8,2.8-1.1c0,0,45.9-22.8,47.1-24.1c0.6-0.6,1.6-2.4,1.8-4.3
	C87.3,8.6,86.2,6.9,83,6c-1-0.3-7.9-1.9-16.5,3.3c-0.6,0.4-3.3,1.8-4.8,2c-1.6,0.2-40.9,15.3-42.6,16.6c-1.7,1.3-4.2,3.2-9.3,3.4
	c-3.2,0.1-6.5,0.8-7.2,1.9C2.9,33.5,3.4,34,4.3,34.4z"/>
<path d="M42,41.4c-2.1-0.6-4.5,1.1-5.2,3.7c-0.7,2.7,0.4,5.3,2.5,5.9c2.1,0.6,4.5-1.1,5.2-3.7C45.2,44.7,44.1,42,42,41.4z
	 M44.2,47.3c-0.5,1.7-1.7,2.9-2.6,2.6c-1-0.3-1.4-1.9-0.9-3.6c0.5-1.7,1.7-2.9,2.6-2.6S44.7,45.6,44.2,47.3z"/>
<path d="M80.8,21.1C79,20.6,77,22,76.4,24.3c-0.6,2.2,0.3,4.5,2.2,5c1.8,0.5,3.8-0.9,4.4-3.2C83.5,23.8,82.6,21.6,80.8,21.1z
	 M82.7,26.1c-0.4,1.5-1.4,2.5-2.2,2.2c-0.8-0.2-1.2-1.6-0.8-3.1c0.4-1.5,1.4-2.5,2.2-2.2C82.7,23.2,83.1,24.6,82.7,26.1z"/>
</svg>
